<?xml version="1.0" encoding="UTF-8"?>
<svg width="116.71mm" height="203.2mm" version="1.1" viewBox="0 0 413.55342 719.99998" xmlns="http://www.w3.org/2000/svg" xmlns:xlink="http://www.w3.org/1999/xlink">
 <defs>
  <linearGradient id="b">
   <stop stop-color="#9c897d" offset="0"/>
   <stop stop-color="#c0b5ad" offset="1"/>
  </linearGradient>
  <linearGradient id="a">
   <stop stop-color="#e3dedb" offset="0"/>
   <stop stop-color="#c0b4ac" offset="1"/>
  </linearGradient>
  <style type="text/css">.fil0 {fill:#1B1C1F}
    .fil1 {fill:#1B1C1F;fill-rule:nonzero}</style>
  <style type="text/css">.fil0 {fill:#1B1C1F}
    .fil1 {fill:#1B1C1F;fill-rule:nonzero}</style>
  <clipPath id="r">
   <path d="m417.66 221.29c-25.211 46.137-54.567 83.78-59.528 146.06-4.9607 62.284 15.984 132.84 15.984 132.84s38.032 0 42.992 1.1024c4.9607 1.1024 17.087 4.4095 35.276 3.3071s41.89-8.819 41.89-8.819l19.291-78.268s-12.126-109.13-14.331-125.67c-2.2047-16.536-2.2047-33.071 1.6536-40.788 3.8583-7.7166 25.626-29.296 41.89-38.307 20.394-11.299 51.811-18.465 74.961-35 23.15-16.536 41.906-47.84 9.9213-43.544-31.812 4.273-56.157 9.7164-86.26 34.725-23.641 19.64-69.725 65.04-69.725 65.04l-22.047-8.819s3.3071-15.433 15.984-29.764 27.008-19.291 58.426-41.89 59.528-49.607 56.221-61.182c-3.3071-11.575-41.89-3.3071-68.898 15.433s-55.67 56.772-62.284 68.898c-6.6142 12.126-22.692 28.677-31.418 44.646z" color="#000000" fill="#e3dedb"/>
  </clipPath>
  <filter id="s" x="-.1332" y="-.090816" width="1.2664" height="1.1816" color-interpolation-filters="sRGB">
   <feGaussianBlur stdDeviation="10.033728"/>
  </filter>
  <linearGradient id="t" x1="1381.1" x2="1389.6" y1="970.76" y2="969.68" gradientTransform="translate(-1268.6 -520)" gradientUnits="userSpaceOnUse" xlink:href="#a"/>
  <radialGradient id="aa" cx="357.79" cy="431.47" r="48.131" gradientTransform="matrix(.16307 .55305 -.44895 .13238 221.93 213.57)" gradientUnits="userSpaceOnUse" xlink:href="#a"/>
  <radialGradient id="ab" cx="487.35" cy="452.1" r="32.111" gradientTransform="matrix(.067124 .73973 -.43539 .039506 287.41 90.553)" gradientUnits="userSpaceOnUse" xlink:href="#a"/>
  <radialGradient id="ac" cx="491.57" cy="360.1" r="27.456" gradientTransform="matrix(.46644 -.24816 .12513 .23519 -153.89 489.89)" gradientUnits="userSpaceOnUse" xlink:href="#a"/>
  <linearGradient id="u" x1="1394.8" x2="1405.4" y1="918.5" y2="928.86" gradientTransform="translate(-1268.6 -520)" gradientUnits="userSpaceOnUse" xlink:href="#a"/>
  <linearGradient id="v" x1="1353.1" x2="1339" y1="920.09" y2="931.16" gradientTransform="translate(-1268.6 -520)" gradientUnits="userSpaceOnUse" xlink:href="#a"/>
  <radialGradient id="ad" cx="1375" cy="972.98" r="19.269" gradientTransform="matrix(2.4276 -.0036465 .0012901 .85883 -3232.8 -384.56)" gradientUnits="userSpaceOnUse">
   <stop stop-color="#a8988d" offset="0"/>
   <stop stop-color="#e3dedb" stop-opacity="0" offset="1"/>
  </radialGradient>
  <linearGradient id="w" x1="1392.1" x2="1405.6" y1="914.84" y2="914.75" gradientTransform="translate(-1268.6 -520)" gradientUnits="userSpaceOnUse" xlink:href="#b"/>
  <radialGradient id="ae" cx="491.57" cy="360.1" r="27.456" gradientTransform="matrix(-.46644 -.24816 -.12513 .23519 367.49 489.89)" gradientUnits="userSpaceOnUse" xlink:href="#a"/>
  <linearGradient id="x" x1="1383" x2="1395.6" y1="955.45" y2="955.63" gradientTransform="translate(-1268.6 -520)" gradientUnits="userSpaceOnUse" xlink:href="#a"/>
  <linearGradient id="y" x1="1372.1" x2="1357.8" y1="953.48" y2="953.8" gradientTransform="translate(-1268.6 -520)" gradientUnits="userSpaceOnUse" xlink:href="#a"/>
  <radialGradient id="af" cx="1377.1" cy="948.7" r="5.2125" gradientTransform="matrix(1 0 0 .69289 -1268.6 -228.23)" gradientUnits="userSpaceOnUse">
   <stop stop-color="#858585" offset="0"/>
   <stop stop-color="#2d2d2d" offset=".27768"/>
   <stop stop-color="#1a1a1a" offset=".38902"/>
   <stop stop-color="#1a1a1a" offset="1"/>
  </radialGradient>
  <linearGradient id="z" x1="1361.3" x2="1349.8" y1="922.22" y2="923.91" gradientTransform="translate(-1268.2 -520.27)" gradientUnits="userSpaceOnUse" xlink:href="#b"/>
 </defs>
 <g transform="translate(-1322 -307.7)">
  <rect x="1129.2" y="1572.4" width="60" height="60" display="none" fill="none"/>
  <rect x="-805.9" y="1464.8" width="60" height="60" display="none" fill="none"/>
  <rect x="605.74" y="1524.7" width="60" height="60" display="none" fill="none"/>
  <rect x="75.896" y="2426" width="60" height="60" display="none" fill="none"/>
  <rect x="-1859.2" y="2318.3" width="60" height="60" display="none" fill="none"/>
  <rect x="-447.53" y="2378.3" width="60" height="60" display="none" fill="none"/>
  <g transform="matrix(5.9873 0 0 5.9873 890.84 -1905.6)">
   <path d="m88.398 454.09c-1.4417 15.461 3.5263 33.064 3.5263 33.064s9.451 0.1276 10.68 0.4182 4.2313 1.1531 8.755 0.9402 10.439-2.051 10.439-2.051l5.0564-19.385s-1.637-21.856-5.4124-24.837c-0.4495-9.598-8.2409-3.3843-9.1654-4.9451-3.2698-5.5195-11.984-6.342-15.135-1.6847-5.0727 7.4965-6.6803 6.9933-8.7438 18.48z" color="#000000" fill="url(#t)"/>
   <path transform="matrix(.2498 .0031035 -.0035632 .24398 .21398 363.95)" d="m491.28 258.06c-9.1193-14.273-15.379-19.863-15.999-19.829 0.12403 13.259 25.198 86.007 25.749 99.235 0.55119 13.228-0.5625 32.531-0.5625 32.531l-24.781 13.781s-1.6762 12.133-1.125 17.094c0.55119 4.9607 11.031 6.0625 11.031 6.0625s-4.9601 15.423-6.0625 19.281c-1.1024 3.8583 0.67682 23.803-0.31426 41.106-1.0809 18.871-9.96 30.405-40.37 22.248-23.97-6.42-44.19-61.69-44.19-61.69l4.9375 95.344 140.56-6.5938-17.625-181.91-40.475-73.021s1.209-8.034 9.2192-3.6419z" clip-path="url(#r)" color="#000000" fill-opacity="0" filter="url(#s)"/>
   <path d="m94.194 463.23c-1.5868-0.9411-4.0415-1.9919-6.6646-1.4461-2.6228 0.5458-5.3424 8.2586-5.1042 12.137 0.2382 3.878 6.196 14.614 6.196 14.614l5.7156-0.02s1.554 1.2702 2.4998 1.3899c0.9636 0.122 2.8192-0.7369 2.8192-0.7369 0.6644 0.7799 3.369 0.8481 3.246-0.053 0.7218 0.3488 1.0078 0.6917 1.5902 0.6027s1.9735-1.4444 1.5954-3.3689c-0.7251-3.6907-4.3923-4.7091-4.3923-4.7091s1.865-1.8153 1.0326-4.7327c-0.8325-2.9173-3.4964-10.689-8.5336-13.677z" color="#000000" fill="url(#aa)"/>
   <path d="m119.61 482.08s-0.9188 3.475-0.6465 4.8347c0.2722 1.3598 1.9082 2.1569 2.6831 2.1674 0.7748 0.011 2.4239-0.1611 2.4239-0.1611s1.3741 0.7494 2.1167 0.7067c0.8193-0.047 2.2304-1.0423 2.2304-1.0423s1.6365 0.2511 2.0265 0.063c0.3901-0.1885 1.4744-1.4312 0.6469-3.1195-0.2593-0.5291 3.5821-7.0233 3.921-10.603 0.339-3.5797-3.2185-12.734-4.7511-14.014s-3.934-2.0638-6.6929 1.3862c-2.759 3.4501-4.1978 9.9849-4.1741 12.533 0.046 4.9852 0.2163 7.2488 0.2163 7.2488z" color="#000000" fill="url(#ab)"/>
   <path d="m123.86 447.1s-3.3282 2.5705-4.1122 3.238-5.1043 4.9683-4.4578 7.302c0.6466 2.3336 1.6834 3.8125 3.4331 4.0181 0.6413 0.075 1.5653-1.1413 1.5653-1.1413s1.7329 0.7983 2.8963 0.7171c1.1636-0.081 2.2551-2.0038 2.2551-2.0038l0.7159-2.7996s1.2047 0.4521 1.9913-0.4091 1.3059-5.2287-0.048-7.2174c-0.8569-1.259-4.2393-1.704-4.2393-1.704z" color="#000000" fill="url(#ac)"/>
   <path d="m102.52 480.41s-3.0156 1.8162-3.9761 1.9403c-0.8208 0.1059-5.1352 1.122-6.5013 0.8296-1.366-0.2925-1.9834-0.3685-1.9834-0.3685s1.4348 0.6308 1.3626 0.9038c-0.072 0.273-0.363 1.5718-0.363 1.5718s1.1059-1.2151 1.5871-1.3456c0.4813-0.1305 3.7845-1.1852 4.6072-1.2426 0.8227-0.057 4.3306-0.8969 4.3306-0.8969zm0.3935 4.1439c0.5167 1.7557 0.5339 3.1441-0.1309 4.5187l0.4768 0.356c0.7167-1.7432 0.4877-3.3836-0.3459-4.8747zm-3.6705 0.331c0.8807 1.4014 1.08 2.9586 0.1195 4.3822l0.6866-0.2315c0.3396-1.1087 1.2308-3.1424-0.8061-4.1507z" color="#000000" fill="#6c5d53"/>
   <path d="m122.7 481.78c-2.7411 0.6714-3.0386-0.1394-3.0386-0.1394l-0.2865 1.4975s1.7924-1.0609 3.984-1.1113c1.5535-0.036 4.6576 0.195 4.6576 0.195s-3.7471-0.8263-5.3164-0.4419zm1.6575 2.7924c-0.2106 1.4987-0.2358 3.5311-0.6805 4.3791l0.8214 0.1431c-0.3279-0.4494-0.1739-2.7072-0.1408-4.5224zm3.6919 0.3916c0.073 1.1736 0.4325 3.1765 0.019 3.7672l0.687-0.2626c-0.4356-0.5669-0.595-2.8678-0.1423-3.2641z" color="#000000" fill="#6c5d53"/>
   <path d="m125.97 454.55c0.078 0.6312 0.3001 1.7519-0.02 1.8094l0.7495-0.021c0.152-0.9044-0.4701-1.2041-0.7293-1.7885zm-9.484 2.3341-0.2416 2.9405 0.6334 0.8318c-0.4692-0.764-0.313-2.4395-0.3918-3.7722zm2.8676 0.4503c-0.3554 0.9542 0.6061 3.4334 0.6061 3.4334l0.7546-0.091c-1.2081-1.1237-0.9153-2.2293-1.3607-3.3427z" color="#000000" fill="#6c5d53"/>
   <path d="m114.78 413.59c6.9319-16.915 12.5-32.474 14.479-39.23 1.803-6.155 5.8665-5.2944 6.9039-2.8813 10.68 24.842 1.6837 32.649-5.4373 39.698-6.6346 6.5681-11.816 11.016-11.119 14.028z" fill="url(#u)"/>
   <path d="m101.81 413.72c-9.4755-15.632-17.393-30.138-20.398-36.504-2.7373-5.8001-6.6177-4.3188-7.2676-1.7737-6.6905 26.2 3.6881 32.7 12.223 37.951 4.681 2.8797 10.385 6.9422 10.165 10.026z" fill="url(#v)"/>
   <path d="m95.021 427.76c1.2442-4.9724-0.1501-9.4977 8.8384-15.783 0.912-0.68962 1.5053-2.1226 1.9992-3.7879 1.8585-0.0173 1.7807 1.6598 2.6304 2.5252-0.2428-1.6052-0.4644-3.1468-0.8418-5.1557-0.2408-1.2822 0.2409-1.1754 0.8418-0.63131 2.3749 2.1503 2.4953 3.862 5.4714 7.4705 2.8243 2.4526 6.3071 5.791 7.7862 15.993l-14.52 7.0496z" fill="#e3dedb"/>
   <path d="m97.474 426.82c-7.4135 0.0302-14.742 14.112 0.028 19.66 7.8654 2.9542 17.508 1.3152 21.298-1e-5 17.389-6.1258 4.5936-23.505-3.104-18.782-2.1468 1.3172-4.7373 2.0729-7.4726 2.2047-2.7846-0.11663-5.4256-0.87835-7.6174-2.2047-1.0083-0.61015-2.0732-0.8824-3.1323-0.87809z" fill="#e3dedb"/>
   <path d="m97.474 426.82c-7.4135 0.0302-14.742 14.112 0.028 19.66 7.8654 2.9542 17.508 1.3152 21.298-1e-5 17.389-6.1258 4.5936-23.505-3.104-18.782-2.1468 1.3172-4.7373 2.0729-7.4726 2.2047-2.7846-0.11663-5.4256-0.87835-7.6174-2.2047-1.0083-0.61015-2.0732-0.8824-3.1323-0.87809z" fill="url(#ad)"/>
   <path d="m119.57 435.94c-0.028 7.4e-4 -0.055 5e-3 -0.082 0.0117-6.9444 1.8192-13.879 2.8245-20.916 0.97266-0.2788-0.073-0.5262 0.19455-0.4317 0.46679 1.2312 3.5713 2.7499 6.3168 4.4727 8.1856s3.6701 2.8628 5.6953 2.8516c2.0252-0.0113 4.0838-1.0221 6.0449-3.0117s3.8426-4.9636 5.5567-8.9746c0.1031-0.24116-0.078-0.5082-0.3399-0.50195z" color="#000000" color-rendering="auto" fill="#1c1c1c" image-rendering="auto" shape-rendering="auto" solid-color="#000000" style="block-progression:tb;isolation:auto;mix-blend-mode:normal;text-decoration-color:#000000;text-decoration-line:none;text-decoration-style:solid;text-indent:0;text-transform:none;white-space:normal"/>
   <path d="m101.66 443.58c2.6668-1.5605 5.0691-1.564 7.2388-0.19847l-0.8559 1.434c3.3331-4.7961 6.8523-2.7486 7.3324-1.4634-3.5398 4.4399-9.0561 6.5326-13.715 0.22789z" fill="#3d3d3d" stroke="#1c1c1c" stroke-linecap="round" stroke-linejoin="round" stroke-width=".72062"/>
   <path d="m105.2 437.17 0.526 5.7607 2.4092-0.10038 0.3344-4.7201-0.2015 4.8056 2.4821 0.19894 0.947-5.8133c-0.5496 0.07-1.0826 0.12006-1.4861 0.10148-0.5479-0.0252-1.0624-0.11299-1.5653-0.12778-0.6589-0.0194-1.2749 0.14251-2.0209 0.072-0.4836-0.0457-0.95-0.1196-1.4249-0.1772z" fill="#fff"/>
   <ellipse transform="matrix(1 0 -.078143 .99694 0 0)" cx="136.13" cy="425.12" rx="3.196" ry="4.5864" fill="#fff"/>
   <ellipse transform="matrix(1 0 -.06958 .99758 0 0)" cx="132.76" cy="426.72" rx="1.3465" ry="2.1701" stroke="#000" stroke-linecap="round" stroke-width=".14782"/>
   <ellipse transform="matrix(1 0 -.096846 .9953 0 0)" cx="144.58" cy="426.75" rx=".73753" ry=".85399" fill="#fff" stroke="#000" stroke-linecap="round" stroke-width=".068631"/>
   <ellipse transform="matrix(-1 0 .078143 .99694 0 0)" cx="-80.609" cy="425.38" rx="3.196" ry="4.5864" fill="#fff"/>
   <ellipse transform="matrix(-1 0 .06958 .99758 0 0)" cx="-83.983" cy="426.98" rx="1.3465" ry="2.1701" stroke="#000" stroke-linecap="round" stroke-width=".14782"/>
   <ellipse transform="matrix(-1 0 .096846 .9953 0 0)" cx="-72.151" cy="427.02" rx=".73753" ry=".85399" fill="#fff" stroke="#000" stroke-linecap="round" stroke-width=".068631"/>
   <path d="m105.12 416.6 0.053 1.7887c-2.9376-2.1965-4.0381 0.91385-5.8397 1.9992 1.758-2.1464 3.2424-5.7064 5.7871-3.7879z" fill="#c0b5ad"/>
   <path d="m112.01 414.97-0.053 1.7887c2.6745-1.8809 3.8802 1.3873 5.4713 3.1039-0.9162-2.2516-1.8745-6.3377-5.4187-4.8927z" fill="#c0b5ad"/>
   <path d="m120.37 408.91c-0.3221 1.8042-0.2226 2.5801 1.8894 1.9765 2.2217-0.63495 4.6585-3.1411 7.0123-4.9251-1.3877 0.24121-2.3268 8e-3 -3.0078-0.49701 3.2793-1.9036 5.9505-4.6109 8.2868-7.7611-1.3821 0.0864-2.7598 0.33048-4.1369 0.59641 1.9492-1.9308 3.554-0.66556 6.5937-12.716-0.5042 0.77939-1.5033 1.5723-2.9173 2.3767-0.3838-2.637-0.7781-5.1307-1.0342-9.5337-3.0776 1.8882-5.6553 9.6772-8.2044 17.804-1.3176 4.2005-3.639 7.9605-4.4816 12.679z" fill="url(#w)"/>
   <path d="m89.74 447.1s3.3282 2.5705 4.1122 3.238 5.1043 4.9683 4.4578 7.302c-0.6466 2.3336-1.6834 3.8125-3.4331 4.0181-0.6413 0.075-1.5653-1.1413-1.5653-1.1413s-1.7329 0.7983-2.8963 0.7171c-1.1636-0.081-2.2551-2.0038-2.2551-2.0038l-0.7159-2.7996s-1.2047 0.4521-1.9913-0.4091-1.3059-5.2287 0.048-7.2174c0.8569-1.259 4.2393-1.704 4.2393-1.704z" color="#000000" fill="url(#ae)"/>
   <path d="m87.631 454.55c-0.078 0.6312-0.3001 1.7519 0.02 1.8094l-0.7495-0.021c-0.152-0.9044 0.4701-1.2041 0.7293-1.7885zm9.484 2.3341 0.2416 2.9405-0.6334 0.8318c0.4692-0.764 0.313-2.4395 0.3918-3.7722zm-2.8676 0.4503c0.3554 0.9542-0.6061 3.4334-0.6061 3.4334l-0.7546-0.091c1.2081-1.1237 0.9153-2.2293 1.3607-3.3427z" color="#000000" fill="#6c5d53"/>
   <path d="m110.52 432.27c0.153-0.36104 8.7324-2.268 10.215-1.9106 0.7916 0.19084 1.6511 0.41777-0.6286 1.0254 3.7673 0.12134 7.0265 3.0664 4.9407 2.5912 3.793 4.3779 1.0336 2.6828 0.598 2.5037-0.184 2.7098-0.9304 3.5184-1.6405 4.45 0.3776-2.5503-0.11-4.1768-0.9704-5.405l2.462 0.51332c-0.096-1.1781-2.3794-1.7322-3.407-2.4886 0.7115-0.25028 2.6304-0.22675 2.1045-0.47758-1.9328-0.922-4.7427-0.94238-7.2931-0.81463 0.5149-0.31187 0.8478-0.60038 1.8108-0.96979-1.8858-0.15412-5.4338 0.63963-8.1912 0.98258z" fill="url(#x)"/>
   <path d="m106.57 432.27c-0.153-0.36104-8.7324-2.268-10.215-1.9106-0.7916 0.19084-1.6511 0.41777 0.6286 1.0254-3.7673 0.12134-7.0265 3.0664-4.9407 2.5912-3.793 4.3779-1.0336 2.6828-0.598 2.5037 0.184 2.7098 0.9304 3.5184 1.6405 4.45-0.3776-2.5503 0.11-4.1768 0.9704-5.405l-2.462 0.51332c0.096-1.1781 2.3794-1.7322 3.407-2.4886-0.7115-0.25028-2.6304-0.22675-2.1045-0.47758 1.9328-0.922 4.7427-0.94238 7.2931-0.81463-0.5149-0.31187-0.8478-0.60038-1.8108-0.96979 1.8858-0.15412 5.4338 0.63963 8.1912 0.98258z" fill="url(#y)"/>
   <path d="m104.44 427.81c-1.6867 1.111-1.149 1.9399-0.6313 2.5778 1.1213 1.3818 2.7571 2.2442 4.1562 3.1566 0.2256 0.14716 0.5897 0.17047 0.8943 0 1.8325-1.0257 3.4209-2.177 4.6296-3.6826 0.4887-0.60868 0.1521-1.4031-0.4735-1.8413-2.6514-1.8576-5.4609-2.262-8.5753-0.21043z" fill="url(#af)"/>
   <path d="m95.913 409.69c0.5986 1.7323 0.6207 2.5142-1.5594 2.246-2.2933-0.28208-5.0899-2.3792-7.6923-3.7759 1.4084 0.0227 2.2999-0.35316 2.8941-0.95827-3.5352-1.3711-6.5946-3.6305-9.3919-6.3795 1.3787-0.12932 2.7776-0.10227 4.1793-0.0535-2.2255-1.6045-3.6143-0.10533-8.4891-11.537 0.6191 0.69159 1.7292 1.3197 3.2511 1.8946-0.031-2.6646-0.028-5.1893-0.4596-9.5787 3.3336 1.3872 7.0901 8.6811 10.871 16.313 1.9542 3.9448 4.8315 7.2985 6.397 11.829z" fill="url(#z)"/>
  </g>
 </g>
</svg>
